<?xml version="1.0" encoding="UTF-8"?><svg id="a" xmlns="http://www.w3.org/2000/svg" viewBox="0 0 232 282"><path d="M58.13,35.66c-2.3,1.52-9.26,6.12-8.31,9.7,.77,2.92,6.53,4.08,6.93,4.16,3.87,.74,5.11-.79,8.31,0,2.78,.69,5.86,2.83,6.93,5.54,2.39,6.06-5.47,14.24-11.09,18.01-3.71,2.5-11.42,7.68-19.4,4.16-6.59-2.91-10.15-10.35-9.7-16.63,.13-1.88,.77-5.7,8.31-13.86,4.42-4.78,10.39-11.22,20.79-16.63,15.82-8.23,30.59-8.19,40.16-8.17,8.15,.02,26.2,.26,45,10,2.98,1.54,8.83,7.32,18.77,10.64,4.21,1.41,7.84,2.04,10.23,2.36,4.16-3.23,8.53-6.88,13-11,4.46-4.1,8.45-8.14,12-12-4.33,13.33-8.67,26.67-13,40-2.82,74.59-1.71,129.7,1,147,.79,5.05,2.51,15.27,10.03,24.88,4.29,5.48,9.06,8.98,12.47,11.09-7.85-2.77-15.71-5.54-23.56-8.31-3.99-2.48-9.69-6.81-13.86-13.86-3.41-5.76-4.85-11.76-5.54-31.87-.52-15.32-.22-27.4,0-34.64,.38-12.71,.66-16.83,1.39-34.64,1.33-32.6,1.19-38.59-1.39-47.12-3.78-12.54-9.79-20.5-11.09-22.17-10.09-13.08-22.5-18.56-27.72-20.79-15.49-6.62-28.78-5.97-37.42-5.54-18.04,.89-28.27,6.4-33.26,9.7Z"/><path d="M167.61,125.73c.18-.17-1.57-2.47-4.16-5.54-4.87-5.78-10.32-11.06-13.86-13.86-7.01-5.55-22.14-13.77-40.19-15.24-40.05-3.27-67.99,27.62-69.29,29.1-22.31,25.46-21.7,55.7-20.79,66.52,.66,7.82,4.37,39.73,30.49,60.97,17.53,14.26,36.61,16.76,56.82,19.4,22.21,2.9,40.71,.22,48.8-1.01,11.56-1.76,18.82-4.01,20.49-4.53,19.63-6.19,33.51-16.16,33.26-16.63-.19-.35-8.08,4.86-22.17,9.7-3.05,1.05-14.52,4.86-30.49,6.93-7.01,.91-13.68,1.77-22.17,1.39-9.67-.44-25.51-1.15-40.19-11.09-13.05-8.84-18.77-20.63-23.56-30.49-3.55-7.31-10.36-21.78-9.7-41.57,.14-4.1,.95-19.25,9.7-36.03,2.4-4.61,6.72-12.73,15.24-20.79,3.25-3.08,19.87-18.21,38.8-18.01,6.19,.06,12.04,1.28,12.47,1.39,2.36,.56,7.77,2.03,13.95,5.61,10.42,6.03,16.2,14.1,16.54,13.79Z"/></svg>