<?xml version="1.0" encoding="UTF-8"?><svg id="e" xmlns="http://www.w3.org/2000/svg" viewBox="0 0 244 279"><path d="M211.37,170.49c.74,.02,2.92,14.36-1,31-1.06,4.48-5.11,19.95-18,35-3.83,4.47-10.56,12.13-22,18-8.79,4.51-16.23,5.84-23,7-5.46,.93-21.22,3.18-41-1-15.48-3.27-26.35-8.98-32-12-11.61-6.22-19.36-12.62-21-14-22.9-19.19-32.16-43.52-35-52-7.5-22.36-6.25-41.17-5.5-52.5,.97-14.58,4.11-27.47,5-31,0,0,2.27-9,4.96-16.33,16.12-43.91,56.54-60.17,56.54-60.17,4.42-1.77,28.67-11.11,59-4,8.23,1.93,32.27,8.7,51,30,7.09,8.06,14.31,16.54,16,29,3.53,26-20.33,47.27-29,55-3.81,3.39-38.38,33.26-80,24-8.19-1.82-14.66-4.72-19-7-1.76-1.2-5.85-4.34-8-10-.84-2.21-3.19-8.42,0-14,2.85-4.98,8.33-6.34,11-7,5.72-1.42,10.43-.04,14,1,4.75,1.39,7.66,3.39,10,5,2.85,1.96,3.58,3.02,4,4,1.63,3.81-.86,7.79-1,8-1.32,2.04-3.15,3.01-5,4-3.5,1.87-4.74,1.18-7,3-.73,.59-3.2,2.57-3,5,.21,2.52,3.18,4.06,5,5,.68,.35,3.05,1.52,9,2,3.7,.3,6.76,.17,9,0,1.99-.15,6.4-.58,12-2,19.39-4.91,35-16,35-16,3.1-2.2,8.83-6.32,15-13,7.93-8.58,18.37-19.87,20-36,1.56-15.41-5.32-33.02-19-43-19.04-13.88-43.42-5.15-61,1-22.03,7.71-34.6,20.46-37.5,23.5-2.24,2.35-11.52,12.54-18,29-12.6,32.02-8.49,72.47,11,98,7.6,9.95,19.66,20.43,25.5,25.5,9.38,8.14,14.79,11.63,19,14,5.01,2.82,12.15,6.77,22,9,6.44,1.46,19.6,4.43,34-1,15.02-5.67,22.89-17.28,26-22,15.72-23.88,10.97-52.03,12-52Z"/></svg>