<?xml version="1.0" encoding="UTF-8"?><svg id="f_mitten" xmlns="http://www.w3.org/2000/svg" viewBox="0 0 262 413"><path d="M54.74,360.27c.18-.91,2.82-.59,7-2,5.59-1.89,9.46-5.71,12-9,1.27-134.08,1.81-185.09,2-197,.03-1.74,.14-8.26,0-17-.13-8.56-.26-16.4-1-25-1.42-16.44-2.2-25.42-7-36-3.39-7.48-7.44-12.75-13-20-8.74-11.39-16.54-18.42-16-19,.61-.66,9.72,8.99,26,17,5.87,2.89,8.78,4.4,12,5,10.33,1.91,20.06-3.09,39.39-17.53,10.25-7.65,22.96-17.78,36.98-30.57,9.44,1.6,58.2,10.81,85.02,54.57,4.96,8.09,13.71,22.75,15,43,.03,.47,.22,4.94-.19,9.92-3.06,37.34-38.9,84.92-67.81,113.08-.56,.55-7.47,7.27-16,17-15.65,17.85-20.32,27.06-23,34-3.52,9.11-3.91,15.11-4,17-.57,12.21,3.82,21.05,4,21,.24-.07-8.31-16.71-3-34,1.37-4.47,3.48-8.35,6-13,4.27-7.87,8.69-13.9,12-18,2.24-2.96,5.7-7.51,10-13,6.5-8.3,11.34-14.19,12-15,42.77-52.63,36-104,36-104-.93-7.83-4.26-32.47-24-52-3.5-3.47-28.46-27.43-57-21-3.37,.76-19.26,4.34-26,17-2.52,4.74-3.15,11-4.39,23.53-.78,7.86-.93,15.63-1,20-.01,.86-.1,6.13,0,12,.32,19.21,2.33,210.33,2,281-1.79-5.17-5.44-13.57-13-21-16.35-16.06-41.55-18.21-41-21Z"/><path d="M10.13,225.75c-.26-.76,23.65-5.49,45-23,6.38-5.23,11.01-10.36,14-14,3.9-.07,7.9-.07,12,0,7.32,.13,14.32,.48,21,1,14.33-5.33,28.67-10.67,43-16l-27,33c-8.33-3.33-16.67-6.67-25-10-12,6.67-24,13.33-36,20-7.54,3.69-13.76,4.72-18,5-5.36,.35-7.13-.55-13,0-9.34,.87-15.95,4.16-16,4Z"/></svg>