<?xml version="1.0" encoding="UTF-8"?><svg id="g_ny" xmlns="http://www.w3.org/2000/svg" viewBox="0 0 348 591"><path d="M289.34,258.45c-.35-38.81-.36-78.14,0-118,.21-23.52,.55-46.85,1-70,13.67-19.67,27.33-39.33,41-59l-42,27c-17-10.67-34-21.33-51-32l-87,39s-12.89,4.84-31,7c-5.5,.66-8.16,.66-11,0-12.28-2.84-18.73-15.76-21-21,1.16,8.55,4.67,24.07,17,37,2.64,2.77,5.36,5.08,8,7-5.7,7.08-14.23,19.52-19,37-8.09,29.62-.05,54.11,3,63,6.83,19.88,17.49,32.55,23,39,6.69,7.83,21.22,24.43,46,34,9.82,3.8,22.64,8.56,39,6,5.79-.91,17.97-2.99,29-13,11.94-10.84,15.11-24.24,16-29-31.8-40.34-38.65-48.27-39-48-.44,.33,11.14,12.1,10,27-.15,1.95-.79,9.02-6,15-4.92,5.65-11.12,7.13-19,9-4.89,1.16-13.36,3.08-24,1-9.54-1.87-15.82-5.97-22-10-1.7-1.11-12.33-8.15-21-19-3.31-4.14-30.01-38.36-18-73,7.41-21.35,25.22-31.89,44-43,25.32-14.98,49.47-19.46,64-21,11.67,9,23.33,18,35,27,.24,31.61,.24,63.61,0,96-.3,40.27-.98,79.95-2,119,4.33,2.33,36.03,20.06,41,54,6.84,46.76-42.21,89.07-72,85-24.47-3.34-27.53-31.7-63-38-23.29-4.14-43.71,4.65-49,7-15.46,6.87-24.74,16.35-34,26-13.08,13.62-19.93,25.24-33,48-9.74,16.96-19.51,34.18-28,59-6.26,18.3-9.79,34.76-9,35,1.37,.41,7.74-50.85,43-96,9.39-12.02,46.67-59.76,85-53,11.78,2.08,21.98,8.8,35,18,16.88,11.93,28.66,24.33,36,33,27.66-16.02,49.45-31.3,65-43,35.13-26.43,42.37-37.56,46-44,3.86-6.86,17.07-31.13,12-63-5.86-36.82-31.94-57.45-38-62Z"/></svg>