<?xml version="1.0" encoding="UTF-8"?><svg id="i" xmlns="http://www.w3.org/2000/svg" viewBox="0 0 113 344"><path d="M30.5,272.44c.04-.95,4.64-.88,10.5-3.5,4.11-1.84,7.09-4.22,9-6,1.08-63.07,.94-118.31,.64-133.87-.16-8.27-.26-41.2-1.64-49.13-.66-3.78-1.42-6.87-2-9-3.45-3.75-8.36-9.08-14.25-15.52-6.16-6.74-11.75-12.9-11.29-13.4,.43-.46,6.85,6.34,18.34,11.99,2.95,1.45,5.27,2.6,8.46,3.53,13.78,4.02,26.3-1,28.92-2.12,12.16-5.18,18.69-14.48,19.04-14.11,.41,.43-9.62,10.95-11.29,12.7-3.27,3.43-5.01,4.86-7.59,7.97-2.98,3.58-5.06,6.8-6.36,8.96-.36,2.31-.69,4.64-1,7-3.01,23.29-1,160.82,0,192,.55,17.1,2.39,67.98,2,68-.18,0-.99-10.76-3-26-2.27-17.21-3.64-21.73-7.33-25.87-4.7-5.29-11.22-7.8-14.81-9.17-8.41-3.2-16.4-3.36-16.36-4.46Z"/><path d="M42.5,43.44c.58,.08,.09-8.95,6-13,2.87-1.97,7.49-2.93,10-1,2.36,1.82,1.19,4.92,4,7,1.8,1.34,4.23,1.5,6,1,4.26-1.21,6.49-6.8,6-11-.74-6.33-7.78-10.82-14-11-7.67-.22-12.6,6.18-14,8-6.71,8.72-4.64,19.92-4,20Z"/></svg>