<?xml version="1.0" encoding="UTF-8"?><svg id="n" xmlns="http://www.w3.org/2000/svg" viewBox="0 0 217 347"><path d="M20.36,253.16c.04-1,5.47-.46,11-4.18,0,0,.82-.55,1.97-1.61,0,0,2.25-2.04,4.03-4.66,6.21-9.18,4-90.84,4-90.84-.74-27.14-.63-54.3-1-81.44-.04-2.98-.13-9.8-3-17.75-1.3-3.61-2.73-6.21-5.58-11.4-1.78-3.24-4.7-8.64-9.17-14.73-6.16-8.39-11.67-13.56-11.29-13.99,.43-.48,6.85,6.62,18.34,12.52,3.16,1.63,5.91,2.68,8.46,3.68,6.77,2.66,12.61,4.33,16.84,5.38,7.67-6.53,20.81-15.85,39-20,29.25-6.68,61.49,.76,82,19,34.04,30.27,28.03,82.76,24,118-2.34,20.47-14.93,55.26-40,124,0,0-22.14,60.69-24,60-1.28-.48,33.04-104.26,39-193,1.05-15.66,2.09-43.72-15-69-9.35-13.83-21.03-22.24-29-27-21.24-7.13-41.05,1.23-45,3-7.43,3.33-10.81,6.73-12,8-8.45,9.04-9.01,20.69-9,25,.48,12.76,1.54,42.15,2,70,.09,5.55-1.07,116.11-2,140-1.44-3.79-3.67-9.03-7-15-2.63-4.71-3.99-7.11-6.44-9.77-5.28-5.71-11.38-8.21-14.81-9.57-8.28-3.29-16.41-3.55-16.36-4.65Z"/></svg>