<?xml version="1.0" encoding="UTF-8"?><svg id="g_ny" xmlns="http://www.w3.org/2000/svg" viewBox="0 0 309 519"><path d="M65.5,439.49c-.43-99.86-1.31-199.7-2.64-299.53-.29-22.06-.61-44.12-.95-66.19-12.92-18.6-25.85-37.19-38.77-55.79,13.24,8.51,26.48,17.02,39.71,25.53,16.07-10.09,32.15-20.17,48.22-30.26,20.57,6.7,55.01,19.6,87.33,41.16,17.07,11.39,28.62,21.92,37.82,35.93,2.74,4.17,7.62,11.72,11.35,22.69,3.13,9.22,9.77,33.66,0,60.52-5.63,15.46-14.13,24.68-24.92,36.37-9.48,10.27-22.28,23.95-43.5,32.15-9.29,3.59-21.41,8.1-36.88,5.67-5.48-.86-16.99-2.82-27.42-12.29-11.29-10.25-14.28-22.92-15.13-27.42,30.07-38.15,36.55-45.64,36.88-45.39,.41,.32-10.54,11.44-9.46,25.53,.14,1.84,.75,8.52,5.67,14.18,4.65,5.34,10.52,6.74,17.97,8.51,4.62,1.1,12.63,2.91,22.69,.95,9.02-1.76,14.96-5.64,20.8-9.46,3.49-2.28,12.52-8.28,19.86-17.97,15.76-20.8,13.92-45.65,13.57-49.61-3.03-34.2-30.02-54.08-38.16-60.08-24.13-17.78-49.69-19.7-60.52-19.86-11.03,8.51-22.06,17.02-33.09,25.53-.11,14.94-.17,29.98-.17,45.11,0,17.45,.07,31.52,.13,39.52,.02,2.62,.03,4.7,.04,5.64,0,.58,0,.46,0,.51,.01,1.97-.12,103.69-.45,340.33-1.21-7.74-4.19-18.97-12-30-7.34-10.37-16.08-16.49-20-19-12.16-7.77-23.43-9.76-23-12,.35-1.86,8.04-.27,17-5,3.68-1.94,6.32-4.29,8-6Z"/></svg>