<?xml version="1.0" encoding="UTF-8"?><svg id="s" xmlns="http://www.w3.org/2000/svg" viewBox="0 0 336 275"><path d="M297.23,33.61c-1.08-1.29-10.52,10.54-25,13-17.67,3.01-25.81-10.83-52.5-21.5-11.53-4.61-33.6-13.44-59-8-28.67,6.14-45.19,26.93-49,32-5.2,6.93-15.81,21.46-16.5,42.5-.79,24.17,11.77,48.92,32,61,17.67,10.55,36.44,8.59,56.5,6.5,37.93-3.96,53.19-19.46,72.5-9.5,1.22,.63,12.39,6.59,17,19,6.52,17.54-4.82,35.2-9.5,42.5-19.7,30.71-55.76,35.73-58,36-27.65,3.31-48.52-9.03-62-17-11.9-7.04-31.49-21.32-45-46-7.05-12.88-9.4-23.05-14-43-7.19-31.13-4.41-39.66-11.5-71.5-6.19-27.79-9.93-41.75-22-49C31.64,8.85,5.26,22.74,5.23,22.61c-.03-.13,30.25-12.61,48,1,4.29,3.29,6.69,7.21,9,11,2.22,3.63,4.7,8.7,10,35,1.22,6.07,2.04,10.15,3,16,1.88,11.48,2.69,19.95,3,23,1.22,11.87,4.15,30.59,8,45,3.07,11.49,10.4,38.91,33,62,11.78,12.04,22.96,18.75,26.63,20.8,2.44,1.37,19.21,10.58,39.37,13.2,35.41,4.59,79.13-11.52,102-46,6.22-9.38,22.84-34.45,13-60-9.1-23.63-34.65-31.6-36-32-8.58-2.53-16.5-1.72-32,0-29.81,3.31-37.06,9.21-65,11-10.92,.7-20.4,.48-31-3-6.45-2.11-14.19-4.76-21-12-11.97-12.74-11.12-29.16-11-31,.11-1.61,1.58-19.32,16-30,13.75-10.19,30.33-7.34,44-5,10.93,1.88,21.29,6.58,42,16,11.33,5.15,16.95,8.33,36,17,7.58,3.45,13.84,6.19,18,8,2.93-5.02,7.56-12.49,14-21,12.59-16.63,24.1-26.69,23-28Z"/></svg>