<?xml version="1.0" encoding="UTF-8"?><svg id="y" xmlns="http://www.w3.org/2000/svg" viewBox="0 0 331 492"><path d="M303.49,43.97c-.58,7.62-2.84,10.02-3,18-.33,16.14,6.34,27.78,8,33,6.1,19.24,9.9,53.35-1,82-8.4,22.07-23.16,34.72-41,50-27.42,23.49-38.7,20.87-67,42-28.74,21.46-44.92,44.92-56,61-23.29,33.79-35.43,66.35-42,90-2.97-21.65-17.76-37.51-34-39-18.93-1.73-32.58,16.73-35,20-7.38,9.98-8.86,19.67-11,35-4.46,31.89,.46,56.05,1,56,.86-.07-17.67-60.7,12-103,10.23-14.59,23.28-22.83,31-27,5.14,4.99,12.39,10.93,22,16,5,2.64,9.75,4.57,14,6,3.62-12.67,10.31-31.98,23-53,7.01-11.61,19.83-30.33,72-77,48.59-43.47,56.47-44.22,69-66,7.5-13.05,22.61-43.96,15-77-4.02-17.44-12.22-26.17-14-28-13.14-13.53-30.2-15.57-36-16,21-9.67,42-19.33,63-29,.82-2.61,1.55-5.62,2-9,1.1-8.15,.14-15.11-1-20,8.55,15.21,9.6,27.04,9,35Z"/><path d="M163.99,290.47c-.77-12.89-4.82-178.43-2-244-2.15-4.71-5.63-11.51-11-19-6-8.38-10.93-12.82-10-14,1.35-1.71,13.4,5.51,18.24,8.4,5.15,3.08,6.97,4.55,11.76,7.6,4.39,2.79,10.92,6.7,19.43,10.86,.28,20.49,.47,168.03-.43,219.88-1.24,.49-3.16,1.45-5,3.26-2.67,2.63-3.64,5.59-4,7-1.28,.79-3.13,2.07-5,4-2.4,2.47-3.47,4.57-5,7-1.44,2.29-3.67,5.45-7,9Z"/></svg>