<?xml version="1.0" encoding="UTF-8"?><svg id="b" xmlns="http://www.w3.org/2000/svg" viewBox="0 0 253 383"><path d="M115,7.31c-.59-.76-4.7,1.34-6,2-2.74,1.4-4.55,2.9-7,5-5.31,4.55-6.26,5.57-8,7,0,0-4.68,3.85-12,7-2.41,1.03-20.52,8.53-37,1-3.54-1.62-8.36-5.08-18-12-2.64-1.9-4.76-3.26-9-6-6.09-3.93-6.86-4.17-7-4-.42,.52,5.12,4.92,13,15,0,0,0,0,0,0,5.14,6.57,12.13,17.31,21.5,33.5,1.44,75.54,1.7,111.42,1.5,128.5-.01,.95-.07,5.2-.11,10.95-.06,10.86,.04,20.75,.11,51.05,.03,16.81,.06,41.52,0,72-1.8,2.12-4.74,5.2-9,8-7.38,4.86-12.91,5.1-13,7-.1,2.28,9.65,3.22,22,8,6.8,2.63,16.08,6.22,24,14,3.63,3.56,9.45,10.44,13,22-2.56-27.5-2.54-49.11-2-64,.28-7.89,.69-13.24,1-26,.47-19.03,.17-31.62,0-46-.16-13-.27-31.74,0-55,2.44-6.01,8.06-17.47,20-27,4.45-3.55,20.28-16.19,42-14,17.62,1.78,28.9,12.32,34,17,19.32,17.75,22.07,41.12,23,49,1.01,8.54,.45,15.42,0,21-1.31,16.27-5.42,28.27-8,36,0,0-5.37,15.65-13,29-22.93,40.16-97.42,62.89-97,64,.29,.76,35.48-9.42,81-34,28.8-15.55,42.28-26.37,53-41,10.58-14.43,15.55-28.62,17-33,1.45-4.38,5.48-17.42,6-35,.28-9.37,.8-26.79-7-46-3.55-8.75-14.12-34.8-41-47-34.75-15.78-68.15,1.86-72,4-25.81,14.36-35.5,38.19-38,45,.03-13.29,.03-26.62,0-40-.06-25.66-.23-51.16-.5-76.5,1.33-6.26,4.09-15.75,10.5-25.5,9.5-14.46,23.11-23.57,22-25Z"/></svg>