<?xml version="1.0" encoding="UTF-8"?><svg id="c" xmlns="http://www.w3.org/2000/svg" viewBox="0 0 264 267"><path d="M245.55,163.96c.5,.16-1.44,14.8-10,31-11.19,21.17-27.22,32.36-34,37-12.86,8.81-24.56,12.83-31,15-3.88,1.3-13.33,4.29-26,6-9.73,1.31-22.24,3-38,0-14.59-2.78-25.01-8.26-32-12-11.61-6.22-19.36-12.62-21-14-22.86-19.16-32.13-43.44-35-52-7.19-21.41-6.23-39.11-5.5-52.5,1.13-20.82,6.19-36.56,7.5-40.5,0,0,1.22-3.65,2.46-6.83,5.88-14.99,21.41-46.08,56.54-60.17,4.42-1.77,28.67-11.11,59-4,8.23,1.93,32.27,8.7,51,30,10.81,12.3,14.53,23.42,16,29,1.89,7.19,5.62,21.31-2,30-.77,.88-5.85,6.49-13,6-6.1-.42-10.19-5.04-11-6-1.32-1.56-2.04-3.04-3-5-2.01-4.1-2.74-7.6-3-9-.66-3.6-1.29-7.03,0-11,.67-2.07,1.53-4.71,4-6,3.72-1.95,8.33,.62,9,1,2.61,1.46,2.13,2.47,5,4,.93,.5,4.97,2.66,8,1,0,0,1.21-.66,2-2,.7-1.19-3.34-24.06-23-35-16.89-9.39-35.23-4.39-44-2-22.99,6.27-36.51,21.54-44,30-6.62,7.48-17.42,19.95-22,39-3.56,14.78-2.66,26.7-2,33,2.16,20.52,10.03,34.92,14,42,4.28,7.65,13.07,22.94,31,36,19.37,14.11,38.11,17.38,42,18,8.96,1.44,24,3.67,41-3,2.56-1.01,13.12-5.33,24-16,22.37-21.93,26.29-51.22,27-51Z"/></svg>