<?xml version="1.0" encoding="UTF-8"?><svg id="h" xmlns="http://www.w3.org/2000/svg" viewBox="0 0 286 473"><path d="M81.95,337.82c.13-.92,3.08-.68,7-2,5.59-1.89,9.46-5.71,12-9,1.27-134.08,1.81-185.09,2-197,.03-1.74,.14-8.26,0-17-.05-3.31-.24-12.63-1-25-.62-10.06-1.66-22.74-3.5-37.5-3.72-4.2-9.44-10.64-16.5-18.5-9.78-10.88-16.61-18.34-16-19,.61-.66,9.72,8.99,26,17,4.19,2.06,7.48,3.68,12,5,19.54,5.7,37.29-1.42,41-3,17.24-7.34,26.49-20.53,27-20,.43,.44-7.7,9-16,18-7.94,8.61-14.31,15.75-18.5,20.5-1.33,6.62-2.06,12.25-2.5,16.5-.79,7.68-.9,13.81-1,20-.01,.86-.1,6.13,0,12,.32,19.21,2.79,57.77,3,61,4.87-3.41,12.08-8.33,21-14,18.44-11.71,27.88-17.63,39-21,7.92-2.4,19.52-5.77,34-3,5.14,.98,16.39,3.13,26,12,12.68,11.7,14.52,27.76,16,40,2.14,17.71-.79,31.83-3,41-5.04,20.93-11.82,49.09-33,84-46.16,76.09-115.52,109.71-129,116-46.67,21.77-86.06,24.77-86,25,.05,.2,30.9-5.16,67-22,17.48-8.15,30.23-16.21,36-20,11.06-7.26,31.72-21.02,51-43,28.79-32.83,38.39-66.43,47-93,14.28-44.06,10.84-64.42,8-75-2.97-11.07-9.45-35.25-30-42-12.53-4.12-25.85,1.82-38,7-11.9,5.08-20.59,11.46-26,16-.33,70.67-.67,141.33-1,212-3.72-10.91-9.41-17.51-13-21-7.13-6.93-15.1-10.42-21-13-11.02-4.83-20.23-6.37-20-8Z"/></svg>