<?xml version="1.0" encoding="UTF-8"?><svg id="k" xmlns="http://www.w3.org/2000/svg" viewBox="0 0 291 450"><path d="M24.17,341.59c.13-.92,3.08-.68,7-2,5.59-1.89,9.46-5.71,12-9,1.27-134.08,1.81-185.09,2-197,.03-1.74,.14-8.26,0-17-.07-4.19-.27-13.31-1-25-.61-9.76-1.63-21.83-3.4-35.72-3.67-4.75-9.33-11.87-16.6-20.28C15.16,25.16,7.55,17.25,8.17,16.59c.61-.66,9.72,8.99,26,17,4.19,2.06,7.48,3.68,12,5,19.54,5.7,37.29-1.42,41-3,17.41-7.41,26.23-20.74,27-20,.68,.66-7.1,10.2-16.4,20.28-8.48,9.18-15.9,16.29-21,21-.12,4.99-.3,12.39-.49,21.38-.28,12.82-.75,31.78-1.01,55.12-.38,34.64-.8,34.17-1,62-.12,16.66-.06,30.23,0,39,15.17-19.83,30.33-39.67,45.5-59.5,5.94-1.58,12.82-4.05,20-8,20.86-11.47,31.96-28.66,37-38-2.75,5.7-6.08,13.46-9,23-2.9,9.48-2.99,12.89-3,14-.04,4.14,.79,13.59,10.5,24.5-33.04,3.04-54.28,14.79-66,23-16.9,11.84-29.09,26.9-29,27,.08,.08,8.51-10.23,21-19,7.62-5.35,35.86-25.18,67-16,32.37,9.54,44.62,43.92,46,48,8.06,23.8,3.18,49.74-1,72-3.42,18.19-8.61,33.25-2,52,3.08,8.75,7.43,14.6,10,18,20.04,26.51,53.18,34.41,66.47,36.84-.78-.06-1.71-.15-2.76-.28-1.09-.13-2.34-.32-3.71-.57-2.63-.6-5.3-1.26-8-2-21.57-5.9-39.87-15.08-55-25-5.12-5.27-12.23-13.88-17-26-4.84-12.29-3.83-19.47-5-53-1.21-34.68-2.87-43.7-9-53-5.64-8.57-12.57-13.57-16-16-15.44-10.94-31.25-12.29-41-13-24.46-1.78-43.88,5.98-54,11-.77,22.28-.97,40.44-1,53-.05,17.86,.23,25.56,0,41-.31,20.5-1.25,37.15-2,48-.03-9.39-1.55-27.94-14-38-5.36-4.33-14.5-8.51-15.1-8.78-11.02-4.99-20.22-6.39-20-8Z"/></svg>