<?xml version="1.0" encoding="UTF-8"?><svg id="l" xmlns="http://www.w3.org/2000/svg" viewBox="0 0 181 442"><path d="M66.18,11.36c.59-.76,4.7,1.34,6,2,2.74,1.4,4.55,2.9,7,5,5.31,4.55,6.26,5.57,8,7,0,0,4.68,3.85,12,7,2.41,1.03,20.52,8.53,37,1,3.54-1.62,8.36-5.08,18-12,2.64-1.9,4.76-3.26,9-6,6.09-3.93,6.86-4.17,7-4,.42,.52-24.04,24.58-29.61,32.5-2.98,4.24-5.26,8.33-7,12-.26,48.95-.39,73.42-.39,73.5h0c.3,4.85,.53,22.9,1,59,.05,4.16,.09,7.6,.11,10.95,.1,19.15,.05,34.67-.11,51.05-.38,38.72-1.13,80.92-1.29,89.69-4.78,2.14-15.04,7.52-23,19-5.99,8.64-8.14,17.07-9,22-.95-5.5-3.45-15.44-11-25-3.74-4.74-8.7-11.02-16-13-16.5-4.48-34.35,15.89-37,19-25.79,30.26-17.76,74.01-18,74-.27,0-11.12-56.52,22-95,7.65-8.89,16.01-14.91,23-19,11.82,7.44,23.64,14.88,35.46,22.32-.05-7.54-.12-19.47-.17-27-.51-87.16-.71-174.33-.61-261.5-1.95-5.02-5.15-12.01-10.39-19.5-10.31-14.72-23.09-23.6-22-25Z"/></svg>