<?xml version="1.0" encoding="UTF-8"?><svg id="Layer_27" xmlns="http://www.w3.org/2000/svg" viewBox="0 0 222 334"><path d="M38,282c-.71-29.49-1.22-59.32-1.5-89.49-.45-48.09-.31-95.35,.34-141.76-2.15-4.71-5.63-11.51-11-19-6-8.38-10.93-12.82-10-14,1.35-1.71,13.4,5.51,18.24,8.4,5.15,3.08,6.97,4.55,11.76,7.6,4.39,2.79,10.92,6.7,19.43,10.86,.06,12.33,.14,30.78,.19,53.26,0,0,.05,22.46,.04,44.92,0,24.47-.11,64.16-.5,131.2,1.97,4.42,5.27,9.91,11,14,14.23,10.15,32.83,4.09,34,8,.57,1.91-3.14,5.75-20,14-4.33,1.67-8.67,3.33-13,5-5.45-3.95-12.44-8.28-21-12-14.49-6.3-27.69-8.35-37-9,2.22-2.37,5.5-5.36,10-8,3.32-1.94,6.44-3.19,9-4Z"/><path d="M46,81c5-7.24,10.95-15.02,18-23,9.65-10.92,19.27-19.83,28-27,11.76-1.86,39.12-4.37,65,11,12.55,7.46,20.37,16.51,25,21.96,16.67,19.63,23.21,40.15,26,52.04-6.25-4.38-11.88-7.2-16-9-4.96-2.16-8.29-3.58-13-4-6.04-.54-11,.87-14,2-.91-3.66-2.42-8.55-5-14-1.66-3.5-7.3-14.68-18-24-17.39-15.14-38.23-16.75-45-17-10.36,6.7-18.03,11.73-23,15-5.81,3.82-10.74,7.09-18,11-4.13,2.22-7.62,3.9-10,5Z"/></svg>